<svg xmlns="http://www.w3.org/2000/svg" xmlns:xlink="http://www.w3.org/1999/xlink" xmlns:inkscape="http://www.inkscape.org/namespaces/inkscape" version="1.1" width="169.5292" height="95.56897" viewBox="0 0 169.5292 95.56897">
<defs>
<clipPath id="clip_1">
<path transform="matrix(1,0,0,-1,-88.1918,679.761)" d="M88.1918 584.192H257.721V679.761H88.1918Z" clip-rule="evenodd"/>
</clipPath>
<clipPath id="clip_2">
<path transform="matrix(1,0,0,-1,3.808197,43.760988)" d="M-1-1H9.065V8.412H-1Z"/>
</clipPath>
<clipPath id="clip_3">
<path transform="matrix(1,0,0,-1,61.808198,19.760987)" d="M-1-1H10.594V8.412H-1Z"/>
</clipPath>
<clipPath id="clip_4">
<path transform="matrix(1,0,0,-1,122.8082,19.760987)" d="M-1-1H9.767V8.412H-1Z"/>
</clipPath>
<clipPath id="clip_5">
<path transform="matrix(1,0,0,-1,94.8082,65.76099)" d="M-1-1H13.513V8.412H-1Z"/>
</clipPath>
<clipPath id="clip_6">
<path transform="matrix(1,0,0,-1,121.8082,51.961)" d="M-1-1H12.824V9.966H-1Z"/>
</clipPath>
<clipPath id="clip_7">
<path transform="matrix(1,0,0,-1,65.8082,51.851015)" d="M-1-1H13.658V11.266H-1Z"/>
</clipPath>
</defs>
<g clip-path="url(#clip_1)">
<path transform="matrix(1,0,0,-1,-88.1918,679.761)" d="M98.3058 662.11C96.5113 668.355 98.2557 674.177 106.461 675.755 114.667 677.333 129.333 674.667 131.128 668.422 132.922 662.177 121.845 652.355 113.639 650.777 105.434 649.199 100.1 655.865 98.3058 662.11Z" fill="#8b0000" fill-opacity=".75" fill-rule="evenodd"/>
<path transform="matrix(1,0,0,-1,-88.1918,679.761)" stroke-width=".4" stroke-linecap="butt" stroke-linejoin="round" fill="none" stroke="#000000" d="M98.3058 662.11C96.5113 668.355 98.2557 674.177 106.461 675.755 114.667 677.333 129.333 674.667 131.128 668.422 132.922 662.177 121.845 652.355 113.639 650.777 105.434 649.199 100.1 655.865 98.3058 662.11Z"/>
<path transform="matrix(1,0,0,-1,-88.1918,679.761)" d="M224.099 638.179C222.304 644.424 224.049 650.246 232.254 651.824 240.46 653.402 255.126 650.736 256.921 644.491 258.715 638.246 247.638 628.424 239.432 626.846 231.227 625.268 225.893 631.934 224.099 638.179Z" fill="#8b0000" fill-opacity=".75" fill-rule="evenodd"/>
<path transform="matrix(1,0,0,-1,-88.1918,679.761)" stroke-width=".4" stroke-linecap="butt" stroke-linejoin="round" fill="none" stroke="#000000" d="M224.099 638.179C222.304 644.424 224.049 650.246 232.254 651.824 240.46 653.402 255.126 650.736 256.921 644.491 258.715 638.246 247.638 628.424 239.432 626.846 231.227 625.268 225.893 631.934 224.099 638.179Z"/>
<path transform="matrix(1,0,0,-1,-88.1918,679.761)" d="M115.584 636.077C114.251 643.41 116.917 651.41 131.027 643.041 145.136 634.673 170.688 609.935 172.021 602.602 173.355 595.269 150.469 605.339 136.36 613.708 122.251 622.077 116.917 628.743 115.584 636.077Z" fill="#8b0000" fill-opacity=".75" fill-rule="evenodd"/>
<path transform="matrix(1,0,0,-1,-88.1918,679.761)" stroke-width=".4" stroke-linecap="butt" stroke-linejoin="round" fill="none" stroke="#000000" d="M115.584 636.077C114.251 643.41 116.917 651.41 131.027 643.041 145.136 634.673 170.688 609.935 172.021 602.602 173.355 595.269 150.469 605.339 136.36 613.708 122.251 622.077 116.917 628.743 115.584 636.077Z"/>
<path transform="matrix(1,0,0,-1,-88.1918,679.761)" stroke-width="1.2" stroke-linecap="butt" stroke-linejoin="round" fill="none" stroke="#000000" d="M196.708 618C196.708 621.705 193.705 624.708 190 624.708 186.295 624.708 183.292 621.705 183.292 618 183.292 614.295 186.295 611.292 190 611.292 193.705 611.292 196.708 614.295 196.708 618"/>
<path transform="matrix(1,0,0,-1,-88.1918,679.761)" stroke-width="1.2" stroke-linecap="butt" stroke-linejoin="round" fill="none" stroke="#000000" d="M102.708 640C102.708 643.705 99.7048 646.708 96 646.708 92.2952 646.708 89.2918 643.705 89.2918 640 89.2918 636.295 92.2952 633.292 96 633.292 99.7048 633.292 102.708 636.295 102.708 640"/>
<path transform="matrix(1,0,0,-1,-88.1918,679.761)" stroke-width="1.2" stroke-linecap="butt" stroke-linejoin="round" fill="none" stroke="#000000" d="M118.708 592C118.708 595.705 115.705 598.708 112 598.708 108.295 598.708 105.292 595.705 105.292 592 105.292 588.295 108.295 585.292 112 585.292 115.705 585.292 118.708 588.295 118.708 592"/>
<path transform="matrix(1,0,0,-1,-88.1918,679.761)" stroke-width="1.2" stroke-linecap="butt" stroke-linejoin="round" fill="none" stroke="#000000" d="M161.708 664C161.708 667.705 158.705 670.708 155 670.708 151.295 670.708 148.292 667.705 148.292 664 148.292 660.295 151.295 657.292 155 657.292 158.705 657.292 161.708 660.295 161.708 664"/>
<path transform="matrix(1,0,0,-1,-88.1918,679.761)" stroke-width="1.2" stroke-linecap="butt" stroke-linejoin="round" fill="none" stroke="#000000" d="M222.708 664C222.708 667.705 219.705 670.708 216 670.708 212.295 670.708 209.292 667.705 209.292 664 209.292 660.295 212.295 657.292 216 657.292 219.705 657.292 222.708 660.295 222.708 664"/>
<g clip-path="url(#clip_2)">
<text xml:space="preserve" transform="matrix(1 0 -0 1 3.808197 828.349)" font-size="17.2154" font-family="Computer Modern" font-style="italic"><tspan y="-784.588" x="0">r</tspan></text>
</g>
<g clip-path="url(#clip_3)">
<text xml:space="preserve" transform="matrix(1 0 -0 1 61.808198 804.349)" font-size="17.2154" font-family="Computer Modern" font-style="italic"><tspan y="-784.588" x="0">u</tspan></text>
</g>
<g clip-path="url(#clip_4)">
<text xml:space="preserve" transform="matrix(1 0 -0 1 122.8082 804.349)" font-size="17.2154" font-family="Computer Modern" font-style="italic"><tspan y="-784.588" x="0">v</tspan></text>
</g>
<g clip-path="url(#clip_5)">
<text xml:space="preserve" transform="matrix(1 0 -0 1 94.8082 850.349)" font-size="17.2154" font-family="Computer Modern" font-style="italic"><tspan y="-784.588" x="0">w</tspan></text>
</g>
<path transform="matrix(1,0,0,-1,-88.1918,679.761)" stroke-width="1.2" stroke-linecap="butt" stroke-linejoin="round" fill="none" stroke="#000000" d="M230.708 592C230.708 595.705 227.705 598.708 224 598.708 220.295 598.708 217.292 595.705 217.292 592 217.292 588.295 220.295 585.292 224 585.292 227.705 585.292 230.708 588.295 230.708 592"/>
<path transform="matrix(1,0,0,-1,-88.1918,679.761)" d="M167.85 637.15 172.85 642.15 172.15 642.85 167.15 637.85Z" fill="#006400" fill-rule="evenodd"/>
<path transform="matrix(1,0,0,-1,-88.1918,679.761)" d="M167.85 642.85 172.85 637.85 172.15 637.15 167.15 642.15Z" fill="#006400" fill-rule="evenodd"/>
<path transform="matrix(1,0,0,-1,-88.1918,679.761)" d="M208.85 637.15 213.85 642.15 213.15 642.85 208.15 637.85Z" fill="#00008b" fill-rule="evenodd"/>
<path transform="matrix(1,0,0,-1,-88.1918,679.761)" d="M208.85 642.85 213.85 637.85 213.15 637.15 208.15 642.15Z" fill="#00008b" fill-rule="evenodd"/>
<g clip-path="url(#clip_6)">
<text xml:space="preserve" transform="matrix(1 0 -0 1 121.8082 834.995)" font-size="14.3462" font-family="Computer Modern" font-style="italic"><tspan y="-785.824" x="0">p</tspan></text>
<text fill="#0000ff" xml:space="preserve" transform="matrix(1 0 -0 1 121.8082 834.995)" font-size="9.9626" font-family="Computer Modern" font-style="italic"><tspan y="-783.672" x="7.05">b</tspan></text>
</g>
<g clip-path="url(#clip_7)">
<text xml:space="preserve" transform="matrix(1 0 -0 1 65.8082 833.585)" font-size="14.3462" font-family="Computer Modern" font-style="italic"><tspan y="-785.823" x="0">p</tspan></text>
<text fill="#006400" xml:space="preserve" transform="matrix(1 0 -0 1 65.8082 833.585)" font-size="9.9626" font-family="Computer Modern" font-style="italic"><tspan y="-783.671" x="7.05">g</tspan></text>
</g>
<path transform="matrix(1,0,0,-1,-88.1918,679.761)" d="M209.061 640C209.061 661.573 191.573 679.061 170 679.061 148.427 679.061 130.939 661.573 130.939 640 130.939 618.427 148.427 600.939 170 600.939 191.573 600.939 209.061 618.427 209.061 640" fill="#006400" fill-opacity=".1" fill-rule="evenodd"/>
<path transform="matrix(1,0,0,-1,-88.1918,679.761)" d="M250.061 640C250.061 661.573 232.573 679.061 211 679.061 189.427 679.061 171.939 661.573 171.939 640 171.939 618.427 189.427 600.939 211 600.939 232.573 600.939 250.061 618.427 250.061 640" fill="#00008b" fill-opacity=".1" fill-rule="evenodd"/>
<path transform="matrix(1,0,0,-1,-88.1918,679.761)" stroke-width=".4" stroke-linecap="butt" stroke-linejoin="round" fill="none" stroke="#000000" d="M102.214 642.528 148.786 661.472"/>
<path transform="matrix(1,0,0,-1,-88.1918,679.761)" d="M148.786 661.472 141.424 660.994 143.18 656.675Z" fill-rule="evenodd"/>
<path transform="matrix(1,0,0,-1,-88.1918,679.761)" stroke-width=".4" stroke-linecap="butt" stroke-linejoin="round" fill="none" stroke="#000000" d="M148.786 661.472 141.424 660.994 143.18 656.675Z"/>
<path transform="matrix(1,0,0,-1,-88.1918,679.761)" stroke-width=".4" stroke-linecap="butt" stroke-linejoin="round" fill="none" stroke="#000000" d="M98.121 633.636 109.879 598.364"/>
<path transform="matrix(1,0,0,-1,-88.1918,679.761)" d="M109.879 598.364 109.877 605.742 105.454 604.268Z" fill-rule="evenodd"/>
<path transform="matrix(1,0,0,-1,-88.1918,679.761)" stroke-width=".4" stroke-linecap="butt" stroke-linejoin="round" fill="none" stroke="#000000" d="M109.879 598.364 109.877 605.742 105.454 604.268Z"/>
<path transform="matrix(1,0,0,-1,-88.1918,679.761)" stroke-width=".4" stroke-linecap="butt" stroke-linejoin="round" fill="none" stroke="#000000" d="M161.708 664H209.292"/>
<path transform="matrix(1,0,0,-1,-88.1918,679.761)" d="M209.292 664 202.292 666.331V661.669Z" fill-rule="evenodd"/>
<path transform="matrix(1,0,0,-1,-88.1918,679.761)" stroke-width=".4" stroke-linecap="butt" stroke-linejoin="round" fill="none" stroke="#000000" d="M209.292 664 202.292 666.331V661.669Z"/>
<path transform="matrix(1,0,0,-1,-88.1918,679.761)" stroke-width=".4" stroke-linecap="butt" stroke-linejoin="round" fill="none" stroke="#000000" d="M118.705 591.801 217.294 592.169"/>
<path transform="matrix(1,0,0,-1,-88.1918,679.761)" d="M217.294 592.169 210.286 594.474 210.303 589.812Z" fill-rule="evenodd"/>
<path transform="matrix(1,0,0,-1,-88.1918,679.761)" stroke-width=".4" stroke-linecap="butt" stroke-linejoin="round" fill="none" stroke="#000000" d="M217.294 592.169 210.286 594.474 210.303 589.812Z"/>
<path transform="matrix(1,0,0,-1,-88.1918,679.761)" d="M118.705 591.801 125.714 589.496 125.697 594.158Z" fill-rule="evenodd"/>
<path transform="matrix(1,0,0,-1,-88.1918,679.761)" stroke-width=".4" stroke-linecap="butt" stroke-linejoin="round" fill="none" stroke="#000000" d="M118.705 591.801 125.714 589.496 125.697 594.158Z"/>
<path transform="matrix(1,0,0,-1,-88.1918,679.761)" stroke-width=".4" stroke-linecap="butt" stroke-linejoin="round" fill="none" stroke="#000000" d="M218.671 596.075 195.329 613.925"/>
<path transform="matrix(1,0,0,-1,-88.1918,679.761)" d="M195.329 613.925 199.473 607.821 202.305 611.524Z" fill-rule="evenodd"/>
<path transform="matrix(1,0,0,-1,-88.1918,679.761)" stroke-width=".4" stroke-linecap="butt" stroke-linejoin="round" fill="none" stroke="#000000" d="M195.329 613.925 199.473 607.821 202.305 611.524Z"/>
<path transform="matrix(1,0,0,-1,-88.1918,679.761)" stroke-width=".4" stroke-linecap="butt" stroke-linejoin="round" fill="none" stroke="#000000" d="M193.301 623.84 212.699 658.16"/>
<path transform="matrix(1,0,0,-1,-88.1918,679.761)" d="M212.699 658.16 207.225 653.213 211.284 650.919Z" fill-rule="evenodd"/>
<path transform="matrix(1,0,0,-1,-88.1918,679.761)" stroke-width=".4" stroke-linecap="butt" stroke-linejoin="round" fill="none" stroke="#000000" d="M212.699 658.16 207.225 653.213 211.284 650.919Z"/>
<path transform="matrix(1,0,0,-1,-88.1918,679.761)" d="M193.301 623.84 198.775 628.787 194.716 631.081Z" fill-rule="evenodd"/>
<path transform="matrix(1,0,0,-1,-88.1918,679.761)" stroke-width=".4" stroke-linecap="butt" stroke-linejoin="round" fill="none" stroke="#000000" d="M193.301 623.84 198.775 628.787 194.716 631.081Z"/>
</g>
</svg>
